<mxfile host="app.diagrams.net" agent="Mozilla/5.0 (Windows NT 10.0; Win64; x64) AppleWebKit/537.36 (KHTML, like Gecko) Chrome/138.0.0.0 Safari/537.36" version="28.0.6">
  <diagram name="PÃ¡gina-1" id="7ZsrX8-yHEyk7juYqocs">
    <mxGraphModel dx="2130" dy="760" grid="1" gridSize="10" guides="1" tooltips="1" connect="1" arrows="1" fold="1" page="1" pageScale="1" pageWidth="827" pageHeight="1169" math="0" shadow="0">
      <root>
        <mxCell id="0" />
        <mxCell id="1" parent="0" />
        <mxCell id="T8PvmnlACvpzvhfbsgPa-16" style="edgeStyle=orthogonalEdgeStyle;rounded=0;orthogonalLoop=1;jettySize=auto;html=1;exitX=0.25;exitY=0;exitDx=0;exitDy=0;entryX=1;entryY=0.5;entryDx=0;entryDy=0;" edge="1" parent="1" source="T8PvmnlACvpzvhfbsgPa-1" target="T8PvmnlACvpzvhfbsgPa-13">
          <mxGeometry relative="1" as="geometry" />
        </mxCell>
        <mxCell id="T8PvmnlACvpzvhfbsgPa-17" style="edgeStyle=orthogonalEdgeStyle;rounded=0;orthogonalLoop=1;jettySize=auto;html=1;exitX=0.75;exitY=0;exitDx=0;exitDy=0;entryX=0;entryY=0.5;entryDx=0;entryDy=0;" edge="1" parent="1" source="T8PvmnlACvpzvhfbsgPa-1" target="T8PvmnlACvpzvhfbsgPa-14">
          <mxGeometry relative="1" as="geometry" />
        </mxCell>
        <mxCell id="T8PvmnlACvpzvhfbsgPa-18" style="edgeStyle=orthogonalEdgeStyle;rounded=0;orthogonalLoop=1;jettySize=auto;html=1;exitX=1;exitY=1;exitDx=0;exitDy=0;entryX=0.5;entryY=0;entryDx=0;entryDy=0;" edge="1" parent="1" source="T8PvmnlACvpzvhfbsgPa-1" target="T8PvmnlACvpzvhfbsgPa-15">
          <mxGeometry relative="1" as="geometry" />
        </mxCell>
        <mxCell id="T8PvmnlACvpzvhfbsgPa-19" style="edgeStyle=orthogonalEdgeStyle;rounded=0;orthogonalLoop=1;jettySize=auto;html=1;exitX=0;exitY=1;exitDx=0;exitDy=0;entryX=0.5;entryY=0;entryDx=0;entryDy=0;" edge="1" parent="1" source="T8PvmnlACvpzvhfbsgPa-1" target="T8PvmnlACvpzvhfbsgPa-12">
          <mxGeometry relative="1" as="geometry" />
        </mxCell>
        <mxCell id="T8PvmnlACvpzvhfbsgPa-28" style="edgeStyle=orthogonalEdgeStyle;rounded=0;orthogonalLoop=1;jettySize=auto;html=1;exitX=1;exitY=0.5;exitDx=0;exitDy=0;entryX=0;entryY=0.25;entryDx=0;entryDy=0;" edge="1" parent="1" source="T8PvmnlACvpzvhfbsgPa-29" target="T8PvmnlACvpzvhfbsgPa-3">
          <mxGeometry relative="1" as="geometry">
            <Array as="points">
              <mxPoint x="320" y="290" />
              <mxPoint x="320" y="405" />
              <mxPoint x="330" y="405" />
              <mxPoint x="330" y="495" />
            </Array>
          </mxGeometry>
        </mxCell>
        <mxCell id="T8PvmnlACvpzvhfbsgPa-1" value="Proyecto" style="rounded=0;whiteSpace=wrap;html=1;fillColor=#ffcd28;strokeColor=#d79b00;gradientColor=#ffa500;" vertex="1" parent="1">
          <mxGeometry x="110" y="100" width="120" height="60" as="geometry" />
        </mxCell>
        <mxCell id="T8PvmnlACvpzvhfbsgPa-20" style="edgeStyle=orthogonalEdgeStyle;rounded=0;orthogonalLoop=1;jettySize=auto;html=1;exitX=0.5;exitY=0;exitDx=0;exitDy=0;entryX=1;entryY=1;entryDx=0;entryDy=0;" edge="1" parent="1" source="T8PvmnlACvpzvhfbsgPa-2" target="T8PvmnlACvpzvhfbsgPa-11">
          <mxGeometry relative="1" as="geometry" />
        </mxCell>
        <mxCell id="T8PvmnlACvpzvhfbsgPa-21" style="edgeStyle=orthogonalEdgeStyle;rounded=0;orthogonalLoop=1;jettySize=auto;html=1;exitX=0;exitY=0.25;exitDx=0;exitDy=0;entryX=1;entryY=0;entryDx=0;entryDy=0;" edge="1" parent="1" source="T8PvmnlACvpzvhfbsgPa-2" target="T8PvmnlACvpzvhfbsgPa-9">
          <mxGeometry relative="1" as="geometry" />
        </mxCell>
        <mxCell id="T8PvmnlACvpzvhfbsgPa-22" style="edgeStyle=orthogonalEdgeStyle;rounded=0;orthogonalLoop=1;jettySize=auto;html=1;exitX=0;exitY=1;exitDx=0;exitDy=0;entryX=0.5;entryY=0;entryDx=0;entryDy=0;" edge="1" parent="1" source="T8PvmnlACvpzvhfbsgPa-2" target="T8PvmnlACvpzvhfbsgPa-10">
          <mxGeometry relative="1" as="geometry" />
        </mxCell>
        <mxCell id="T8PvmnlACvpzvhfbsgPa-23" style="edgeStyle=orthogonalEdgeStyle;rounded=0;orthogonalLoop=1;jettySize=auto;html=1;exitX=1;exitY=1;exitDx=0;exitDy=0;entryX=0;entryY=0.5;entryDx=0;entryDy=0;" edge="1" parent="1" source="T8PvmnlACvpzvhfbsgPa-2" target="T8PvmnlACvpzvhfbsgPa-8">
          <mxGeometry relative="1" as="geometry" />
        </mxCell>
        <mxCell id="T8PvmnlACvpzvhfbsgPa-31" style="edgeStyle=orthogonalEdgeStyle;rounded=0;orthogonalLoop=1;jettySize=auto;html=1;exitX=0.5;exitY=1;exitDx=0;exitDy=0;entryX=1;entryY=0;entryDx=0;entryDy=0;" edge="1" parent="1" source="T8PvmnlACvpzvhfbsgPa-32" target="T8PvmnlACvpzvhfbsgPa-3">
          <mxGeometry relative="1" as="geometry">
            <Array as="points">
              <mxPoint x="490" y="335" />
            </Array>
          </mxGeometry>
        </mxCell>
        <mxCell id="T8PvmnlACvpzvhfbsgPa-2" value="Empleado" style="rounded=0;whiteSpace=wrap;html=1;fillColor=#ffcd28;strokeColor=#d79b00;gradientColor=#ffa500;" vertex="1" parent="1">
          <mxGeometry x="740" y="130" width="120" height="60" as="geometry" />
        </mxCell>
        <mxCell id="T8PvmnlACvpzvhfbsgPa-24" style="edgeStyle=orthogonalEdgeStyle;rounded=0;orthogonalLoop=1;jettySize=auto;html=1;exitX=0.75;exitY=0;exitDx=0;exitDy=0;entryX=1;entryY=1;entryDx=0;entryDy=0;" edge="1" parent="1" source="T8PvmnlACvpzvhfbsgPa-3" target="T8PvmnlACvpzvhfbsgPa-5">
          <mxGeometry relative="1" as="geometry" />
        </mxCell>
        <mxCell id="T8PvmnlACvpzvhfbsgPa-25" style="edgeStyle=orthogonalEdgeStyle;rounded=0;orthogonalLoop=1;jettySize=auto;html=1;exitX=1;exitY=0.25;exitDx=0;exitDy=0;entryX=0;entryY=0.5;entryDx=0;entryDy=0;" edge="1" parent="1" source="T8PvmnlACvpzvhfbsgPa-3" target="T8PvmnlACvpzvhfbsgPa-7">
          <mxGeometry relative="1" as="geometry" />
        </mxCell>
        <mxCell id="T8PvmnlACvpzvhfbsgPa-27" style="edgeStyle=orthogonalEdgeStyle;rounded=0;orthogonalLoop=1;jettySize=auto;html=1;exitX=0.75;exitY=1;exitDx=0;exitDy=0;entryX=0.5;entryY=0;entryDx=0;entryDy=0;" edge="1" parent="1" source="T8PvmnlACvpzvhfbsgPa-3" target="T8PvmnlACvpzvhfbsgPa-4">
          <mxGeometry relative="1" as="geometry" />
        </mxCell>
        <mxCell id="T8PvmnlACvpzvhfbsgPa-3" value="Tarea&lt;span style=&quot;color: rgba(0, 0, 0, 0); font-family: monospace; font-size: 0px; text-align: start; text-wrap-mode: nowrap;&quot;&gt;%3CmxGraphModel%3E%3Croot%3E%3CmxCell%20id%3D%220%22%2F%3E%3CmxCell%20id%3D%221%22%20parent%3D%220%22%2F%3E%3CmxCell%20id%3D%222%22%20value%3D%22Nombre%22%20style%3D%22ellipse%3BwhiteSpace%3Dwrap%3Bhtml%3D1%3B%22%20vertex%3D%221%22%20parent%3D%221%22%3E%3CmxGeometry%20x%3D%22260%22%20width%3D%22120%22%20height%3D%2280%22%20as%3D%22geometry%22%2F%3E%3C%2FmxCell%3E%3C%2Froot%3E%3C%2FmxGraphModel%3E&lt;/span&gt;&lt;span style=&quot;color: rgba(0, 0, 0, 0); font-family: monospace; font-size: 0px; text-align: start; text-wrap-mode: nowrap;&quot;&gt;%3CmxGraphModel%3E%3Croot%3E%3CmxCell%20id%3D%220%22%2F%3E%3CmxCell%20id%3D%221%22%20parent%3D%220%22%2F%3E%3CmxCell%20id%3D%222%22%20value%3D%22Nombre%22%20style%3D%22ellipse%3BwhiteSpace%3Dwrap%3Bhtml%3D1%3B%22%20vertex%3D%221%22%20parent%3D%221%22%3E%3CmxGeometry%20x%3D%22260%22%20width%3D%22120%22%20height%3D%2280%22%20as%3D%22geometry%22%2F%3E%3C%2FmxCell%3E%3C%2Froot%3E%3C%2FmxGraphModel%3E&lt;/span&gt;" style="rounded=0;whiteSpace=wrap;html=1;fillColor=#ffcd28;strokeColor=#d79b00;gradientColor=#ffa500;" vertex="1" parent="1">
          <mxGeometry x="370" y="480" width="120" height="60" as="geometry" />
        </mxCell>
        <mxCell id="T8PvmnlACvpzvhfbsgPa-4" value="Fecha limite" style="ellipse;whiteSpace=wrap;html=1;" vertex="1" parent="1">
          <mxGeometry x="390" y="600" width="120" height="80" as="geometry" />
        </mxCell>
        <mxCell id="T8PvmnlACvpzvhfbsgPa-5" value="Id Proyecto" style="ellipse;whiteSpace=wrap;html=1;fillColor=#f5f5f5;strokeColor=#666666;gradientColor=#b3b3b3;" vertex="1" parent="1">
          <mxGeometry x="350" y="370" width="120" height="80" as="geometry" />
        </mxCell>
        <mxCell id="T8PvmnlACvpzvhfbsgPa-6" value="Id Empleado" style="ellipse;whiteSpace=wrap;html=1;fillColor=#f5f5f5;gradientColor=#b3b3b3;strokeColor=#666666;" vertex="1" parent="1">
          <mxGeometry x="180" y="490" width="120" height="80" as="geometry" />
        </mxCell>
        <mxCell id="T8PvmnlACvpzvhfbsgPa-7" value="Id Tarea" style="ellipse;whiteSpace=wrap;html=1;fillColor=#f5f5f5;gradientColor=#b3b3b3;strokeColor=#666666;" vertex="1" parent="1">
          <mxGeometry x="580" y="480" width="120" height="80" as="geometry" />
        </mxCell>
        <mxCell id="T8PvmnlACvpzvhfbsgPa-8" value="Cargp" style="ellipse;whiteSpace=wrap;html=1;" vertex="1" parent="1">
          <mxGeometry x="890" y="190" width="120" height="80" as="geometry" />
        </mxCell>
        <mxCell id="T8PvmnlACvpzvhfbsgPa-9" value="Nombre" style="ellipse;whiteSpace=wrap;html=1;" vertex="1" parent="1">
          <mxGeometry x="550" y="130" width="120" height="80" as="geometry" />
        </mxCell>
        <mxCell id="T8PvmnlACvpzvhfbsgPa-10" value="Correo" style="ellipse;whiteSpace=wrap;html=1;" vertex="1" parent="1">
          <mxGeometry x="680" y="220" width="120" height="80" as="geometry" />
        </mxCell>
        <mxCell id="T8PvmnlACvpzvhfbsgPa-11" value="Id Empleado" style="ellipse;whiteSpace=wrap;html=1;fillColor=#f5f5f5;gradientColor=#b3b3b3;strokeColor=#666666;" vertex="1" parent="1">
          <mxGeometry x="690" y="10" width="120" height="80" as="geometry" />
        </mxCell>
        <mxCell id="T8PvmnlACvpzvhfbsgPa-12" value="Estado" style="ellipse;whiteSpace=wrap;html=1;" vertex="1" parent="1">
          <mxGeometry x="-20" y="190" width="120" height="80" as="geometry" />
        </mxCell>
        <mxCell id="T8PvmnlACvpzvhfbsgPa-13" value="Id Proyecto" style="ellipse;whiteSpace=wrap;html=1;fillColor=#f5f5f5;gradientColor=#b3b3b3;strokeColor=#666666;" vertex="1" parent="1">
          <mxGeometry x="-40" y="30" width="120" height="80" as="geometry" />
        </mxCell>
        <mxCell id="T8PvmnlACvpzvhfbsgPa-14" value="Nombre de proyecto" style="ellipse;whiteSpace=wrap;html=1;" vertex="1" parent="1">
          <mxGeometry x="250" y="20" width="120" height="80" as="geometry" />
        </mxCell>
        <mxCell id="T8PvmnlACvpzvhfbsgPa-15" value="Fecha de inicio" style="ellipse;whiteSpace=wrap;html=1;" vertex="1" parent="1">
          <mxGeometry x="160" y="200" width="120" height="80" as="geometry" />
        </mxCell>
        <mxCell id="T8PvmnlACvpzvhfbsgPa-26" style="edgeStyle=orthogonalEdgeStyle;rounded=0;orthogonalLoop=1;jettySize=auto;html=1;exitX=0;exitY=0.5;exitDx=0;exitDy=0;entryX=0.985;entryY=0.593;entryDx=0;entryDy=0;entryPerimeter=0;" edge="1" parent="1" source="T8PvmnlACvpzvhfbsgPa-3" target="T8PvmnlACvpzvhfbsgPa-6">
          <mxGeometry relative="1" as="geometry" />
        </mxCell>
        <mxCell id="T8PvmnlACvpzvhfbsgPa-30" value="" style="edgeStyle=orthogonalEdgeStyle;rounded=0;orthogonalLoop=1;jettySize=auto;html=1;exitX=1;exitY=0.5;exitDx=0;exitDy=0;entryX=0;entryY=0.25;entryDx=0;entryDy=0;" edge="1" parent="1" source="T8PvmnlACvpzvhfbsgPa-1" target="T8PvmnlACvpzvhfbsgPa-29">
          <mxGeometry relative="1" as="geometry">
            <mxPoint x="230" y="130" as="sourcePoint" />
            <mxPoint x="370" y="495" as="targetPoint" />
          </mxGeometry>
        </mxCell>
        <mxCell id="T8PvmnlACvpzvhfbsgPa-29" value="Tiene una" style="rhombus;whiteSpace=wrap;html=1;fillColor=#d5e8d4;gradientColor=#97d077;strokeColor=#82b366;" vertex="1" parent="1">
          <mxGeometry x="290" y="250" width="80" height="80" as="geometry" />
        </mxCell>
        <mxCell id="T8PvmnlACvpzvhfbsgPa-33" value="" style="edgeStyle=orthogonalEdgeStyle;rounded=0;orthogonalLoop=1;jettySize=auto;html=1;exitX=0.5;exitY=1;exitDx=0;exitDy=0;entryX=1;entryY=0;entryDx=0;entryDy=0;" edge="1" parent="1" source="T8PvmnlACvpzvhfbsgPa-2" target="T8PvmnlACvpzvhfbsgPa-32">
          <mxGeometry relative="1" as="geometry">
            <mxPoint x="800" y="190" as="sourcePoint" />
            <mxPoint x="490" y="480" as="targetPoint" />
            <Array as="points">
              <mxPoint x="830" y="190" />
              <mxPoint x="830" y="335" />
            </Array>
          </mxGeometry>
        </mxCell>
        <mxCell id="T8PvmnlACvpzvhfbsgPa-32" value="Realiza" style="rhombus;whiteSpace=wrap;html=1;fillColor=#d5e8d4;gradientColor=#97d077;strokeColor=#82b366;" vertex="1" parent="1">
          <mxGeometry x="600" y="290" width="80" height="80" as="geometry" />
        </mxCell>
      </root>
    </mxGraphModel>
  </diagram>
</mxfile>
